<?xml version="1.0" encoding="UTF-8" standalone="no"?>
<svg xmlns:svg="http://www.w3.org/2000/svg"
xmlns="http://www.w3.org/2000/svg" version="1.1"
width="360" height="185">
<!-- Created with the Wikimedia parliament diagram creator (http://tools.wmflabs.org/parliamentdiagram/parliamentinputform.html) -->
<g>
<text x="175" y="175" style="font-size:36px;font-weight:bold;text-align:center;text-anchor:middle;font-family:Sans">423</text>
  <g style="fill:#C40000" id="IndependentSocialDemocraticParty">
    <circle cx="9.58" cy="176.36" r="3.64"/>
    <circle cx="18.68" cy="176.36" r="3.64"/>
    <circle cx="27.77" cy="176.36" r="3.64"/>
    <circle cx="36.86" cy="176.36" r="3.64"/>
    <circle cx="45.96" cy="176.36" r="3.64"/>
    <circle cx="55.05" cy="176.36" r="3.64"/>
    <circle cx="64.15" cy="176.36" r="3.64"/>
    <circle cx="73.24" cy="176.37" r="3.64"/>
    <circle cx="82.34" cy="176.37" r="3.64"/>
    <circle cx="91.44" cy="176.37" r="3.64"/>
    <circle cx="100.54" cy="176.37" r="3.64"/>
    <circle cx="10.10" cy="166.22" r="3.64"/>
    <circle cx="19.23" cy="166.18" r="3.64"/>
    <circle cx="28.36" cy="166.14" r="3.64"/>
    <circle cx="37.50" cy="166.09" r="3.64"/>
    <circle cx="46.64" cy="166.04" r="3.64"/>
    <circle cx="55.79" cy="165.98" r="3.64"/>
    <circle cx="64.92" cy="166.20" r="3.64"/>
    <circle cx="74.08" cy="166.14" r="3.64"/>
    <circle cx="11.23" cy="156.13" r="3.64"/>
    <circle cx="83.27" cy="166.08" r="3.64"/>
    <circle cx="20.42" cy="156.06" r="3.64"/>
  </g>
  <g style="fill:#EB001F" id="SocialDemocraticParty">
    <circle cx="29.63" cy="155.98" r="3.64"/>
    <circle cx="92.48" cy="165.99" r="3.64"/>
    <circle cx="38.86" cy="155.90" r="3.64"/>
    <circle cx="101.72" cy="165.89" r="3.64"/>
    <circle cx="48.11" cy="155.80" r="3.64"/>
    <circle cx="57.39" cy="155.69" r="3.64"/>
    <circle cx="12.95" cy="146.12" r="3.64"/>
    <circle cx="66.57" cy="156.14" r="3.64"/>
    <circle cx="22.25" cy="146.03" r="3.64"/>
    <circle cx="31.59" cy="145.93" r="3.64"/>
    <circle cx="75.90" cy="156.05" r="3.64"/>
    <circle cx="40.96" cy="145.82" r="3.64"/>
    <circle cx="85.28" cy="155.94" r="3.64"/>
    <circle cx="50.37" cy="145.70" r="3.64"/>
    <circle cx="15.26" cy="136.23" r="3.64"/>
    <circle cx="24.71" cy="136.13" r="3.64"/>
    <circle cx="94.73" cy="155.81" r="3.64"/>
    <circle cx="59.84" cy="145.56" r="3.64"/>
    <circle cx="34.21" cy="136.03" r="3.64"/>
    <circle cx="69.11" cy="146.27" r="3.64"/>
    <circle cx="104.27" cy="155.66" r="3.64"/>
    <circle cx="43.77" cy="135.92" r="3.64"/>
    <circle cx="18.16" cy="126.49" r="3.64"/>
    <circle cx="78.68" cy="146.18" r="3.64"/>
    <circle cx="53.40" cy="135.81" r="3.64"/>
    <circle cx="27.79" cy="126.41" r="3.64"/>
    <circle cx="88.35" cy="146.08" r="3.64"/>
    <circle cx="37.50" cy="126.33" r="3.64"/>
    <circle cx="63.12" cy="135.68" r="3.64"/>
    <circle cx="21.64" cy="116.95" r="3.64"/>
    <circle cx="72.50" cy="136.66" r="3.64"/>
    <circle cx="47.29" cy="126.25" r="3.64"/>
    <circle cx="98.16" cy="145.97" r="3.64"/>
    <circle cx="31.48" cy="116.91" r="3.64"/>
    <circle cx="57.19" cy="126.18" r="3.64"/>
    <circle cx="82.39" cy="136.62" r="3.64"/>
    <circle cx="41.43" cy="116.88" r="3.64"/>
    <circle cx="25.67" cy="107.63" r="3.64"/>
    <circle cx="108.15" cy="145.86" r="3.64"/>
    <circle cx="67.21" cy="126.11" r="3.64"/>
    <circle cx="51.49" cy="116.86" r="3.64"/>
    <circle cx="92.44" cy="136.59" r="3.64"/>
    <circle cx="35.76" cy="107.66" r="3.64"/>
    <circle cx="76.72" cy="127.38" r="3.64"/>
    <circle cx="61.70" cy="116.87" r="3.64"/>
    <circle cx="45.98" cy="107.71" r="3.64"/>
    <circle cx="30.26" cy="98.57" r="3.64"/>
    <circle cx="102.72" cy="136.60" r="3.64"/>
    <circle cx="87.00" cy="127.46" r="3.64"/>
    <circle cx="40.62" cy="98.69" r="3.64"/>
    <circle cx="56.36" cy="107.80" r="3.64"/>
    <circle cx="72.09" cy="116.91" r="3.64"/>
    <circle cx="35.37" cy="89.79" r="3.64"/>
    <circle cx="81.74" cy="118.51" r="3.64"/>
    <circle cx="51.14" cy="98.87" r="3.64"/>
    <circle cx="97.51" cy="127.59" r="3.64"/>
    <circle cx="66.92" cy="107.93" r="3.64"/>
    <circle cx="113.30" cy="136.66" r="3.64"/>
    <circle cx="46.03" cy="90.05" r="3.64"/>
    <circle cx="61.86" cy="99.10" r="3.64"/>
    <circle cx="92.47" cy="118.78" r="3.64"/>
    <circle cx="77.72" cy="108.14" r="3.64"/>
    <circle cx="41.00" cy="81.34" r="3.64"/>
    <circle cx="56.89" cy="90.39" r="3.64"/>
    <circle cx="108.35" cy="127.82" r="3.64"/>
    <circle cx="72.81" cy="99.43" r="3.64"/>
    <circle cx="87.53" cy="110.12" r="3.64"/>
    <circle cx="51.98" cy="81.77" r="3.64"/>
    <circle cx="103.51" cy="119.18" r="3.64"/>
    <circle cx="67.98" cy="90.83" r="3.64"/>
    <circle cx="47.12" cy="73.23" r="3.64"/>
    <circle cx="84.06" cy="99.88" r="3.64"/>
    <circle cx="63.19" cy="82.32" r="3.64"/>
    <circle cx="98.74" cy="110.67" r="3.64"/>
    <circle cx="119.61" cy="128.22" r="3.64"/>
    <circle cx="58.44" cy="73.88" r="3.64"/>
    <circle cx="79.35" cy="91.40" r="3.64"/>
    <circle cx="94.02" cy="102.26" r="3.64"/>
    <circle cx="53.72" cy="65.51" r="3.64"/>
    <circle cx="74.67" cy="83.01" r="3.64"/>
    <circle cx="114.97" cy="119.77" r="3.64"/>
    <circle cx="70.02" cy="74.69" r="3.64"/>
    <circle cx="110.36" cy="111.44" r="3.64"/>
    <circle cx="91.06" cy="92.17" r="3.64"/>
    <circle cx="65.38" cy="66.42" r="3.64"/>
    <circle cx="60.76" cy="58.19" r="3.64"/>
    <circle cx="86.48" cy="83.91" r="3.64"/>
    <circle cx="105.76" cy="103.19" r="3.64"/>
    <circle cx="81.91" cy="75.70" r="3.64"/>
    <circle cx="101.19" cy="95.01" r="3.64"/>
    <circle cx="77.34" cy="67.53" r="3.64"/>
    <circle cx="126.99" cy="120.69" r="3.64"/>
    <circle cx="72.78" cy="59.41" r="3.64"/>
    <circle cx="68.23" cy="51.31" r="3.64"/>
    <circle cx="98.68" cy="85.07" r="3.64"/>
    <circle cx="122.49" cy="112.55" r="3.64"/>
    <circle cx="94.17" cy="76.98" r="3.64"/>
    <circle cx="117.98" cy="104.47" r="3.64"/>
    <circle cx="89.65" cy="68.92" r="3.64"/>
    <circle cx="85.13" cy="60.89" r="3.64"/>
    <circle cx="113.47" cy="96.43" r="3.64"/>
    <circle cx="80.61" cy="52.88" r="3.64"/>
    <circle cx="108.96" cy="88.42" r="3.64"/>
    <circle cx="76.09" cy="44.88" r="3.64"/>
    <circle cx="106.86" cy="78.63" r="3.64"/>
    <circle cx="102.36" cy="70.67" r="3.64"/>
    <circle cx="97.86" cy="62.72" r="3.64"/>
    <circle cx="93.35" cy="54.78" r="3.64"/>
    <circle cx="88.84" cy="46.85" r="3.64"/>
    <circle cx="135.30" cy="114.20" r="3.64"/>
    <circle cx="84.32" cy="38.93" r="3.64"/>
    <circle cx="130.81" cy="106.27" r="3.64"/>
    <circle cx="126.30" cy="98.35" r="3.64"/>
    <circle cx="121.79" cy="90.43" r="3.64"/>
    <circle cx="117.28" cy="82.53" r="3.64"/>
    <circle cx="115.55" cy="72.89" r="3.64"/>
    <circle cx="111.03" cy="65.01" r="3.64"/>
    <circle cx="106.50" cy="57.13" r="3.64"/>
    <circle cx="101.96" cy="49.24" r="3.64"/>
    <circle cx="97.43" cy="41.36" r="3.64"/>
    <circle cx="92.90" cy="33.48" r="3.64"/>
    <circle cx="126.08" cy="77.39" r="3.64"/>
    <circle cx="130.65" cy="85.26" r="3.64"/>
    <circle cx="101.78" cy="28.55" r="3.64"/>
    <circle cx="135.22" cy="93.13" r="3.64"/>
    <circle cx="106.35" cy="36.42" r="3.64"/>
    <circle cx="110.93" cy="44.29" r="3.64"/>
    <circle cx="139.80" cy="101.00" r="3.64"/>
    <circle cx="115.51" cy="52.16" r="3.64"/>
    <circle cx="144.39" cy="108.87" r="3.64"/>
    <circle cx="120.10" cy="60.03" r="3.64"/>
    <circle cx="124.69" cy="67.90" r="3.64"/>
    <circle cx="110.94" cy="24.16" r="3.64"/>
    <circle cx="115.57" cy="32.06" r="3.64"/>
    <circle cx="120.21" cy="39.96" r="3.64"/>
    <circle cx="135.31" cy="73.05" r="3.64"/>
    <circle cx="124.86" cy="47.86" r="3.64"/>
    <circle cx="129.53" cy="55.77" r="3.64"/>
    <circle cx="139.96" cy="80.97" r="3.64"/>
    <circle cx="134.21" cy="63.69" r="3.64"/>
    <circle cx="144.64" cy="88.89" r="3.64"/>
    <circle cx="120.34" cy="20.33" r="3.64"/>
    <circle cx="149.35" cy="96.83" r="3.64"/>
    <circle cx="125.04" cy="28.29" r="3.64"/>
    <circle cx="129.75" cy="36.26" r="3.64"/>
    <circle cx="154.11" cy="104.79" r="3.64"/>
    <circle cx="134.49" cy="44.24" r="3.64"/>
    <circle cx="139.26" cy="52.25" r="3.64"/>
    <circle cx="144.87" cy="69.54" r="3.64"/>
    <circle cx="129.96" cy="17.06" r="3.64"/>
    <circle cx="144.06" cy="60.28" r="3.64"/>
    <circle cx="149.65" cy="77.59" r="3.64"/>
    <circle cx="134.73" cy="25.12" r="3.64"/>
    <circle cx="139.53" cy="33.20" r="3.64"/>
    <circle cx="154.46" cy="85.67" r="3.64"/>
    <circle cx="144.36" cy="41.33" r="3.64"/>
    <circle cx="139.75" cy="14.37" r="3.64"/>
    <circle cx="159.33" cy="93.81" r="3.64"/>
    <circle cx="149.23" cy="49.49" r="3.64"/>
    <circle cx="144.60" cy="22.57" r="3.64"/>
    <circle cx="154.71" cy="66.88" r="3.64"/>
    <circle cx="154.15" cy="57.70" r="3.64"/>
    <circle cx="149.48" cy="30.82" r="3.64"/>
    <circle cx="164.28" cy="102.02" r="3.64"/>
    <circle cx="159.61" cy="75.15" r="3.64"/>
  </g>
  <g style="fill:#FFCC00" id="GermanDemocraticParty">
    <circle cx="154.41" cy="39.12" r="3.64"/>
    <circle cx="149.69" cy="12.26" r="3.64"/>
    <circle cx="164.56" cy="83.50" r="3.64"/>
    <circle cx="154.61" cy="20.65" r="3.64"/>
    <circle cx="159.38" cy="47.50" r="3.64"/>
    <circle cx="159.58" cy="29.10" r="3.64"/>
    <circle cx="164.75" cy="65.10" r="3.64"/>
    <circle cx="164.42" cy="55.98" r="3.64"/>
    <circle cx="159.73" cy="10.75" r="3.64"/>
    <circle cx="169.59" cy="91.98" r="3.64"/>
    <circle cx="164.59" cy="37.65" r="3.64"/>
    <circle cx="169.76" cy="73.67" r="3.64"/>
    <circle cx="164.73" cy="19.36" r="3.64"/>
    <circle cx="169.66" cy="46.31" r="3.64"/>
    <circle cx="169.77" cy="28.07" r="3.64"/>
    <circle cx="174.73" cy="100.63" r="3.64"/>
    <circle cx="169.85" cy="9.85" r="3.64"/>
    <circle cx="174.83" cy="82.41" r="3.64"/>
    <circle cx="174.90" cy="64.20" r="3.64"/>
    <circle cx="174.79" cy="55.11" r="3.64"/>
    <circle cx="174.86" cy="36.91" r="3.64"/>
    <circle cx="174.90" cy="18.72" r="3.64"/>
    <circle cx="180.00" cy="9.55" r="3.64"/>
    <circle cx="180.00" cy="27.73" r="3.64"/>
    <circle cx="180.00" cy="45.91" r="3.64"/>
    <circle cx="180.00" cy="73.18" r="3.64"/>
    <circle cx="180.00" cy="91.36" r="3.64"/>
    <circle cx="185.10" cy="18.72" r="3.64"/>
    <circle cx="185.14" cy="36.91" r="3.64"/>
    <circle cx="185.21" cy="55.11" r="3.64"/>
    <circle cx="185.10" cy="64.20" r="3.64"/>
    <circle cx="185.17" cy="82.41" r="3.64"/>
    <circle cx="190.15" cy="9.85" r="3.64"/>
    <circle cx="185.27" cy="100.63" r="3.64"/>
    <circle cx="190.23" cy="28.07" r="3.64"/>
    <circle cx="190.34" cy="46.31" r="3.64"/>
    <circle cx="195.27" cy="19.36" r="3.64"/>
    <circle cx="190.24" cy="73.67" r="3.64"/>
    <circle cx="195.41" cy="37.65" r="3.64"/>
    <circle cx="190.41" cy="91.98" r="3.64"/>
    <circle cx="200.27" cy="10.75" r="3.64"/>
    <circle cx="195.58" cy="55.98" r="3.64"/>
    <circle cx="195.25" cy="65.10" r="3.64"/>
    <circle cx="200.42" cy="29.10" r="3.64"/>
    <circle cx="200.62" cy="47.50" r="3.64"/>
    <circle cx="205.39" cy="20.65" r="3.64"/>
    <circle cx="195.44" cy="83.50" r="3.64"/>
    <circle cx="210.31" cy="12.26" r="3.64"/>
    <circle cx="205.59" cy="39.12" r="3.64"/>
    <circle cx="200.39" cy="75.15" r="3.64"/>
    <circle cx="195.72" cy="102.02" r="3.64"/>
    <circle cx="210.52" cy="30.82" r="3.64"/>
    <circle cx="205.85" cy="57.70" r="3.64"/>
    <circle cx="205.29" cy="66.88" r="3.64"/>
    <circle cx="215.40" cy="22.57" r="3.64"/>
    <circle cx="210.77" cy="49.49" r="3.64"/>
    <circle cx="200.67" cy="93.81" r="3.64"/>
    <circle cx="220.25" cy="14.37" r="3.64"/>
    <circle cx="215.64" cy="41.33" r="3.64"/>
    <circle cx="205.54" cy="85.67" r="3.64"/>
    <circle cx="220.47" cy="33.20" r="3.64"/>
    <circle cx="225.27" cy="25.12" r="3.64"/>
    <circle cx="210.35" cy="77.59" r="3.64"/>
    <circle cx="215.94" cy="60.28" r="3.64"/>
    <circle cx="230.04" cy="17.06" r="3.64"/>
    <circle cx="215.13" cy="69.54" r="3.64"/>
    <circle cx="220.74" cy="52.25" r="3.64"/>
    <circle cx="225.51" cy="44.24" r="3.64"/>
    <circle cx="205.89" cy="104.79" r="3.64"/>
    <circle cx="230.25" cy="36.26" r="3.64"/>
    <circle cx="234.96" cy="28.29" r="3.64"/>
    <circle cx="210.65" cy="96.83" r="3.64"/>
    <circle cx="239.66" cy="20.33" r="3.64"/>
    <circle cx="215.36" cy="88.89" r="3.64"/>
    <circle cx="225.79" cy="63.69" r="3.64"/>
  </g>
  <g style="fill:#FFEB3B" id="CenterParty">
    <circle cx="220.04" cy="80.97" r="3.64"/>
    <circle cx="230.47" cy="55.77" r="3.64"/>
    <circle cx="235.14" cy="47.86" r="3.64"/>
    <circle cx="224.69" cy="73.05" r="3.64"/>
    <circle cx="239.79" cy="39.96" r="3.64"/>
    <circle cx="244.43" cy="32.06" r="3.64"/>
    <circle cx="249.06" cy="24.16" r="3.64"/>
    <circle cx="235.31" cy="67.90" r="3.64"/>
    <circle cx="239.90" cy="60.03" r="3.64"/>
    <circle cx="215.61" cy="108.87" r="3.64"/>
    <circle cx="244.49" cy="52.16" r="3.64"/>
    <circle cx="220.20" cy="101.00" r="3.64"/>
    <circle cx="249.07" cy="44.29" r="3.64"/>
    <circle cx="253.65" cy="36.42" r="3.64"/>
    <circle cx="224.78" cy="93.13" r="3.64"/>
    <circle cx="258.22" cy="28.55" r="3.64"/>
    <circle cx="229.35" cy="85.26" r="3.64"/>
    <circle cx="233.92" cy="77.39" r="3.64"/>
    <circle cx="267.10" cy="33.48" r="3.64"/>
    <circle cx="262.57" cy="41.36" r="3.64"/>
    <circle cx="258.04" cy="49.24" r="3.64"/>
    <circle cx="253.50" cy="57.13" r="3.64"/>
    <circle cx="248.97" cy="65.01" r="3.64"/>
    <circle cx="244.45" cy="72.89" r="3.64"/>
    <circle cx="242.72" cy="82.53" r="3.64"/>
    <circle cx="238.21" cy="90.43" r="3.64"/>
    <circle cx="233.70" cy="98.35" r="3.64"/>
    <circle cx="229.19" cy="106.27" r="3.64"/>
    <circle cx="275.68" cy="38.93" r="3.64"/>
    <circle cx="224.70" cy="114.20" r="3.64"/>
    <circle cx="271.16" cy="46.85" r="3.64"/>
    <circle cx="266.65" cy="54.78" r="3.64"/>
    <circle cx="262.14" cy="62.72" r="3.64"/>
    <circle cx="257.64" cy="70.67" r="3.64"/>
    <circle cx="253.14" cy="78.63" r="3.64"/>
    <circle cx="283.91" cy="44.88" r="3.64"/>
    <circle cx="251.04" cy="88.42" r="3.64"/>
    <circle cx="279.39" cy="52.88" r="3.64"/>
    <circle cx="246.53" cy="96.43" r="3.64"/>
    <circle cx="274.87" cy="60.89" r="3.64"/>
    <circle cx="270.35" cy="68.92" r="3.64"/>
    <circle cx="242.02" cy="104.47" r="3.64"/>
    <circle cx="265.83" cy="76.98" r="3.64"/>
    <circle cx="237.51" cy="112.55" r="3.64"/>
    <circle cx="261.32" cy="85.07" r="3.64"/>
    <circle cx="291.77" cy="51.31" r="3.64"/>
    <circle cx="287.22" cy="59.41" r="3.64"/>
    <circle cx="233.01" cy="120.69" r="3.64"/>
    <circle cx="282.66" cy="67.53" r="3.64"/>
    <circle cx="258.81" cy="95.01" r="3.64"/>
    <circle cx="278.09" cy="75.70" r="3.64"/>
    <circle cx="254.24" cy="103.19" r="3.64"/>
    <circle cx="273.52" cy="83.91" r="3.64"/>
    <circle cx="299.24" cy="58.19" r="3.64"/>
    <circle cx="294.62" cy="66.42" r="3.64"/>
    <circle cx="268.94" cy="92.17" r="3.64"/>
    <circle cx="249.64" cy="111.44" r="3.64"/>
    <circle cx="289.98" cy="74.69" r="3.64"/>
    <circle cx="245.03" cy="119.77" r="3.64"/>
    <circle cx="285.33" cy="83.01" r="3.64"/>
    <circle cx="306.28" cy="65.51" r="3.64"/>
    <circle cx="265.98" cy="102.26" r="3.64"/>
    <circle cx="280.65" cy="91.40" r="3.64"/>
    <circle cx="301.56" cy="73.88" r="3.64"/>
    <circle cx="240.39" cy="128.22" r="3.64"/>
    <circle cx="261.26" cy="110.67" r="3.64"/>
    <circle cx="296.81" cy="82.32" r="3.64"/>
    <circle cx="275.94" cy="99.88" r="3.64"/>
    <circle cx="312.88" cy="73.23" r="3.64"/>
    <circle cx="292.02" cy="90.83" r="3.64"/>
    <circle cx="256.49" cy="119.18" r="3.64"/>
    <circle cx="308.02" cy="81.77" r="3.64"/>
    <circle cx="272.47" cy="110.12" r="3.64"/>
    <circle cx="287.19" cy="99.43" r="3.64"/>
    <circle cx="251.65" cy="127.82" r="3.64"/>
    <circle cx="303.11" cy="90.39" r="3.64"/>
    <circle cx="319.00" cy="81.34" r="3.64"/>
    <circle cx="282.28" cy="108.14" r="3.64"/>
    <circle cx="267.53" cy="118.78" r="3.64"/>
    <circle cx="298.14" cy="99.10" r="3.64"/>
    <circle cx="313.97" cy="90.05" r="3.64"/>
    <circle cx="246.70" cy="136.66" r="3.64"/>
    <circle cx="293.08" cy="107.93" r="3.64"/>
    <circle cx="262.49" cy="127.59" r="3.64"/>
    <circle cx="308.86" cy="98.87" r="3.64"/>
    <circle cx="278.26" cy="118.51" r="3.64"/>
    <circle cx="324.63" cy="89.79" r="3.64"/>
    <circle cx="287.91" cy="116.91" r="3.64"/>
    <circle cx="303.64" cy="107.80" r="3.64"/>
    <circle cx="319.38" cy="98.69" r="3.64"/>
    <circle cx="273.00" cy="127.46" r="3.64"/>
  </g>
  <g style="fill:#1874CD" id="GermanPeople'sParty">
    <circle cx="257.28" cy="136.60" r="3.64"/>
    <circle cx="329.74" cy="98.57" r="3.64"/>
    <circle cx="314.02" cy="107.71" r="3.64"/>
    <circle cx="298.30" cy="116.87" r="3.64"/>
    <circle cx="283.28" cy="127.38" r="3.64"/>
    <circle cx="324.24" cy="107.66" r="3.64"/>
    <circle cx="267.56" cy="136.59" r="3.64"/>
    <circle cx="308.51" cy="116.86" r="3.64"/>
    <circle cx="292.79" cy="126.11" r="3.64"/>
    <circle cx="251.85" cy="145.86" r="3.64"/>
    <circle cx="334.33" cy="107.63" r="3.64"/>
    <circle cx="318.57" cy="116.88" r="3.64"/>
    <circle cx="277.61" cy="136.62" r="3.64"/>
    <circle cx="302.81" cy="126.18" r="3.64"/>
    <circle cx="328.52" cy="116.91" r="3.64"/>
    <circle cx="261.84" cy="145.97" r="3.64"/>
    <circle cx="312.71" cy="126.25" r="3.64"/>
    <circle cx="287.50" cy="136.66" r="3.64"/>
    <circle cx="338.36" cy="116.95" r="3.64"/>
  </g>
  <g style="fill:#77BD42" id="Schleswig-HolsteinFarmersandFarmworkersDemocracy">
    <circle cx="296.88" cy="135.68" r="3.64"/>
  </g>
  <g style="fill:#001FEB" id="BraunschweigStateElectoralAssociation">
    <circle cx="322.50" cy="126.33" r="3.64"/>
  </g>
  <g style="fill:#008000" id="BavarianPeasants'League">
    <circle cx="271.65" cy="146.08" r="3.64"/>
    <circle cx="332.21" cy="126.41" r="3.64"/>
    <circle cx="306.60" cy="135.81" r="3.64"/>
    <circle cx="281.32" cy="146.18" r="3.64"/>
  </g>
  <g style="fill:#0000FF" id="German-HanoverianParty">
    <circle cx="341.84" cy="126.49" r="3.64"/>
  </g>
  <g style="fill:#000000" id="GermanNationalPeople'sParty">
    <circle cx="316.23" cy="135.92" r="3.64"/>
    <circle cx="255.73" cy="155.66" r="3.64"/>
    <circle cx="290.89" cy="146.27" r="3.64"/>
    <circle cx="325.79" cy="136.03" r="3.64"/>
    <circle cx="300.16" cy="145.56" r="3.64"/>
    <circle cx="265.27" cy="155.81" r="3.64"/>
    <circle cx="335.29" cy="136.13" r="3.64"/>
    <circle cx="344.74" cy="136.23" r="3.64"/>
    <circle cx="309.63" cy="145.70" r="3.64"/>
    <circle cx="274.72" cy="155.94" r="3.64"/>
    <circle cx="319.04" cy="145.82" r="3.64"/>
    <circle cx="284.10" cy="156.05" r="3.64"/>
    <circle cx="328.41" cy="145.93" r="3.64"/>
    <circle cx="337.75" cy="146.03" r="3.64"/>
    <circle cx="293.43" cy="156.14" r="3.64"/>
    <circle cx="347.05" cy="146.12" r="3.64"/>
    <circle cx="302.61" cy="155.69" r="3.64"/>
    <circle cx="311.89" cy="155.80" r="3.64"/>
    <circle cx="258.28" cy="165.89" r="3.64"/>
    <circle cx="321.14" cy="155.90" r="3.64"/>
    <circle cx="267.52" cy="165.99" r="3.64"/>
    <circle cx="330.37" cy="155.98" r="3.64"/>
    <circle cx="339.58" cy="156.06" r="3.64"/>
    <circle cx="276.73" cy="166.08" r="3.64"/>
    <circle cx="348.77" cy="156.13" r="3.64"/>
    <circle cx="285.92" cy="166.14" r="3.64"/>
    <circle cx="295.08" cy="166.20" r="3.64"/>
    <circle cx="304.21" cy="165.98" r="3.64"/>
    <circle cx="313.36" cy="166.04" r="3.64"/>
    <circle cx="322.50" cy="166.09" r="3.64"/>
    <circle cx="331.64" cy="166.14" r="3.64"/>
    <circle cx="340.77" cy="166.18" r="3.64"/>
    <circle cx="349.90" cy="166.22" r="3.64"/>
    <circle cx="259.46" cy="176.37" r="3.64"/>
    <circle cx="268.56" cy="176.37" r="3.64"/>
    <circle cx="277.66" cy="176.37" r="3.64"/>
    <circle cx="286.76" cy="176.37" r="3.64"/>
    <circle cx="295.85" cy="176.36" r="3.64"/>
    <circle cx="304.95" cy="176.36" r="3.64"/>
    <circle cx="314.04" cy="176.36" r="3.64"/>
    <circle cx="323.14" cy="176.36" r="3.64"/>
    <circle cx="332.23" cy="176.36" r="3.64"/>
    <circle cx="341.32" cy="176.36" r="3.64"/>
    <circle cx="350.42" cy="176.36" r="3.64"/>
  </g>
</g>
</svg>
